<svg version="1.1" xmlns="http://www.w3.org/2000/svg" xmlns:xlink="http://www.w3.org/1999/xlink" width="94" height="94" viewBox="0,0,256,256"><g fill="none" fill-rule="none" stroke="none" stroke-width="none" stroke-linecap="butt" stroke-linejoin="miter" stroke-miterlimit="10" stroke-dasharray="" stroke-dashoffset="0" font-family="none" font-weight="none" font-size="none" text-anchor="none" style="mix-blend-mode: normal"><g transform="scale(2.7234,2.7234)"><g><rect x="0" y="0" width="94" height="94" fill="#8346a0" fill-rule="nonzero" stroke="none" stroke-width="1"></rect><path d="M65.8,18.8h-37.6l-18.80001,18.8v28.2c0,5.3267 4.38671,9.4 9.40001,9.4h56.4c5.3267,0 9.4,-4.0733 9.4,-9.4v-28.2zM30.7067,25.0667h32.5866l12.5334,12.5333h-16.2934c0,6.2667 -5.64,12.5333 -12.5333,12.5333c-6.8933,0 -12.5333,-6.2666 -12.5333,-12.5333h-16.2934zM78.3333,65.8c0,1.88 -1.2533,3.1333 -3.1333,3.1333h-56.4c-1.88,0 -3.1333,-1.5666 -3.1333,-3.1333v-21.9333h13.4733c2.82,7.2066 10.0267,12.5333 17.86,12.5333c7.8333,0 15.04,-5.3267 17.5467,-12.5333h13.7866z" fill="#ffffff" fill-rule="evenodd" stroke="none" stroke-width="1"></path><rect x="5" y="5" width="84" height="84" fill="none" fill-rule="nonzero" stroke="#ffffff" stroke-width="10"></rect></g></g></g></svg>