<svg version="1.1" xmlns="http://www.w3.org/2000/svg" xmlns:xlink="http://www.w3.org/1999/xlink" width="94" height="94" viewBox="0,0,256,256"><g fill="none" fill-rule="none" stroke="none" stroke-width="none" stroke-linecap="butt" stroke-linejoin="miter" stroke-miterlimit="10" stroke-dasharray="" stroke-dashoffset="0" font-family="none" font-weight="none" font-size="none" text-anchor="none" style="mix-blend-mode: normal"><g transform="scale(2.7234,2.7234)"><g><rect x="0" y="0" width="94" height="94" fill="#8346a0" fill-rule="nonzero" stroke="none" stroke-width="1"></rect><path d="M40.7333,15.6667c-1.88,0 -3.1333,1.2533 -3.1333,3.1333v14.4133l-19.74,-19.74c-1.2533,-1.2533 -3.1333,-1.2533 -4.3867,0c-1.2533,1.2534 -1.2533,3.1334 0,4.3867l19.74,19.74h-14.4133c-1.88,0 -3.1333,1.2533 -3.1333,3.1333c0,1.88 1.2533,3.1334 3.1333,3.1334h21.9333c1.88,0 3.1334,-1.5667 3.1334,-3.1334v-21.9333c0,-1.88 -1.5667,-3.1333 -3.1334,-3.1333zM80.5267,76.14l-19.74,-19.74h14.4133c1.88,0 3.1333,-1.2533 3.1333,-3.1333c0,-1.88 -1.2533,-3.1334 -3.1333,-3.1334h-21.9333c-1.88,0 -3.1334,1.5667 -3.1334,3.1334v21.9333c0,1.88 1.2534,3.1333 3.1334,3.1333c1.88,0 3.1333,-1.2533 3.1333,-3.1333v-14.4133l19.74,19.74c1.2533,1.2533 3.1333,1.2533 4.3867,0c1.2533,-1.2534 1.2533,-3.1334 0,-4.3867z" fill="#ffffff" fill-rule="evenodd" stroke="none" stroke-width="1"></path><rect x="5" y="5" width="84" height="84" fill="none" fill-rule="nonzero" stroke="#ffffff" stroke-width="10"></rect></g></g></g></svg>