<svg version="1.1" xmlns="http://www.w3.org/2000/svg" xmlns:xlink="http://www.w3.org/1999/xlink" width="94" height="94" viewBox="0,0,256,256"><g fill="none" fill-rule="none" stroke="none" stroke-width="none" stroke-linecap="butt" stroke-linejoin="miter" stroke-miterlimit="10" stroke-dasharray="" stroke-dashoffset="0" font-family="none" font-weight="none" font-size="none" text-anchor="none" style="mix-blend-mode: normal"><g transform="scale(2.7234,2.7234)"><g><rect x="0" y="0" width="94" height="94" fill="#8346a0" fill-rule="nonzero" stroke="none" stroke-width="1"></rect><path d="M65.8,26.0067v-7.2067c0,-5.3266 -4.0733,-9.39998 -9.4,-9.39998h-18.8c-5.3267,0 -9.4,4.07338 -9.4,9.39998v7.2067c-5.64,5.0133 -9.4,12.5333 -9.4,20.9933c0,8.46 3.76,15.98 9.4,20.9934v7.2066c0,5.3267 4.0733,9.4 9.4,9.4h18.8c5.3267,0 9.4,-4.0733 9.4,-9.4v-7.2066c5.64,-5.0134 9.4,-12.5334 9.4,-20.9934c0,-8.46 -3.76,-15.98 -9.4,-20.9933zM34.4667,18.8c0,-1.88 1.2533,-3.1333 3.1333,-3.1333h18.8c1.88,0 3.1333,1.2533 3.1333,3.1333v2.82c-3.76,-1.88 -8.1466,-2.82 -12.5333,-2.82c-4.3867,0 -8.7733,0.94 -12.5333,2.82zM59.5333,75.2c0,1.88 -1.2533,3.1334 -3.1333,3.1334h-18.8c-1.88,0 -3.1333,-1.2534 -3.1333,-3.1334v-2.82c3.76,1.88 8.1466,2.82 12.5333,2.82c4.3867,0 8.7733,-0.94 12.5333,-2.82zM47,68.9334c-12.22,0 -21.9333,-9.7134 -21.9333,-21.9334c0,-12.22 9.7133,-21.9333 21.9333,-21.9333c12.22,0 21.9333,9.7133 21.9333,21.9333c0,12.22 -9.7133,21.9334 -21.9333,21.9334zM50.1333,45.7467v-11.28c0,-1.88 -1.2533,-3.1333 -3.1333,-3.1333c-1.88,0 -3.1333,1.2533 -3.1333,3.1333v12.5333c0,0.94 0.3133,1.5667 0.94,2.1934l6.2666,6.2666c0.6267,0.6267 1.5667,0.94 2.1934,0.94c0.6266,0 1.5666,-0.3133 2.1933,-0.94c1.2533,-1.2533 1.2533,-3.1333 0,-4.3866z" fill="#ffffff" fill-rule="evenodd" stroke="none" stroke-width="1"></path><rect x="5" y="5" width="84" height="84" fill="none" fill-rule="nonzero" stroke="#ffffff" stroke-width="10"></rect></g></g></g></svg>